<?xml version="1.0" standalone="no"?>
<!DOCTYPE svg PUBLIC "-//W3C//DTD SVG 20010904//EN"
 "http://www.w3.org/TR/2001/REC-SVG-20010904/DTD/svg10.dtd">
<svg version="1.0" xmlns="http://www.w3.org/2000/svg"
 width="600.000000pt" height="599.000000pt" viewBox="0 0 600.000000 599.000000"
 preserveAspectRatio="xMidYMid meet">

<g transform="translate(0.000000,599.000000) scale(0.100000,-0.100000)"
fill="#000000" stroke="none">
<path d="M2630 5975 c-228 -28 -436 -75 -630 -143 l-105 -37 130 -6 c156 -8
249 -21 415 -60 615 -141 1271 -549 1763 -1096 l47 -52 58 35 c31 19 93 46
137 61 70 24 96 27 210 27 149 0 206 -12 349 -76 128 -58 196 -106 311 -222
150 -150 256 -326 325 -535 49 -151 64 -249 64 -416 0 -129 -4 -165 -27 -259
-34 -134 -65 -207 -134 -313 -161 -247 -444 -366 -728 -308 -226 47 -420 168
-589 370 -182 215 -297 510 -312 802 l-7 122 -66 15 c-337 75 -496 90 -931 91
-241 0 -420 -5 -500 -13 -626 -65 -1264 -213 -1700 -394 -164 -68 -461 -210
-595 -286 -108 -60 -104 -49 -104 -287 -1 -173 17 -366 48 -540 12 -60 21
-122 21 -137 0 -14 16 -81 35 -148 151 -520 423 -967 814 -1342 461 -442 1031
-714 1696 -810 143 -21 651 -17 795 5 667 104 1228 384 1701 848 405 398 695
930 813 1488 53 251 60 326 60 641 1 236 -3 318 -18 410 -56 355 -133 603
-286 915 -235 479 -577 868 -1033 1174 -42 28 -81 49 -86 46 -5 -3 -54 20
-108 52 -344 199 -732 325 -1163 378 -151 18 -518 18 -670 0z"/>
</g>
</svg>
